<svg xmlns="http://www.w3.org/2000/svg" xmlns:xlink="http://www.w3.org/1999/xlink" viewBox="0 0 413.19 111.6"><defs><style>.cls-1{fill:none;}.cls-2{clip-path:url(#clip-path);}.cls-3,.cls-4{fill:#363435;}.cls-3{fill-rule:evenodd;}</style><clipPath id="clip-path" transform="translate(0 -0.05)"><rect class="cls-1" width="94" height="112"/></clipPath></defs><g id="Capa_2" data-name="Capa 2"><g id="Capa_1-2" data-name="Capa 1"><g class="cls-2"><path class="cls-3" d="M22.7,41.11A11.53,11.53,0,0,0,23.77,35a75.58,75.58,0,0,0,9.11-1.43A36.19,36.19,0,0,1,22.7,41.11ZM72.43,8.73H94.28v34.5c0,31.36-16.65,54.47-44.9,67.39l-2.24,1-2.23-1C16.63,97.7,0,74.59,0,43.23V8.73H23.68a17.55,17.55,0,0,0-3.17,5.35H5.38V43.23C5.38,59.15,10,73.1,19,84.53c3.93-3.29,9.42-5.4,14-8.31,14.15-9,.11-19.57-10.42-6.31-5.18-1.83-9-5.07-8.53-12.52-3.93-1.45-6.27-3.75-5.15-7.88-2.17-2.06-3.16-3.75.44-6,2.88-1.76,5.91-3.28,8.75-5.11a68.46,68.46,0,0,1-5.94,6.32c5.85-.12,7.15.89,3.53,3.07-5.67,3.42-3.31,5.63.42,6.3s7,.29,10.92,2.34c1.45-3.3.11-6.52-3.48-9.66,3.37-.87,6.16,1.45,10,1.27,6.78-.36,6.84-6.12,3.3-10.09,3.08-.2,5.51,1.16,7.61,3.42C45,34,40.82,29.93,32.77,30.78a9.61,9.61,0,0,1,2.92-3.68c-6.43,1.45-11.74,4.26-14.8,9.82a15.63,15.63,0,0,1,4.67-9.66c-4.13-11-.72-20.54,18.5-27.21a28.81,28.81,0,0,0-4,9.41Q55.66-1.31,77.65,5.8A20.15,20.15,0,0,0,72.43,8.73ZM31.36,83.5A45.3,45.3,0,0,0,22.92,89c.83.87,1.7,1.72,2.57,2.55A44,44,0,0,1,31.36,83.5ZM60.62,98.1a41.08,41.08,0,0,1-2.94-8.57,36.42,36.42,0,0,0-1.61,11.52Q58.44,99.64,60.62,98.1ZM84,69.51a44.79,44.79,0,0,1-9.53-9A69.15,69.15,0,0,0,81,76,62.7,62.7,0,0,0,84,69.51Zm4.88-34a22.22,22.22,0,0,1-6.69-.35,27.34,27.34,0,0,0,6.69,3.3Zm-40-15.22A22.45,22.45,0,0,1,62,8.51q-19.62-.42-28.37,13a11.47,11.47,0,0,1,1.12-11.18c-6.27,4.33-6.39,9.06-4.15,13.91,4-2.32,8.57-2.84,13.5-2.41a15.2,15.2,0,0,0-3.62,5,36.11,36.11,0,0,0,14.42-5c2.7,7.52.74,12.65-4,16.25,1.54-3.51,2.32-7,1.27-10.43a34.53,34.53,0,0,1-7.66,2.5,7.25,7.25,0,0,1,1.28,1.72,14.9,14.9,0,0,0,4.59-1.76,9.32,9.32,0,0,1-2.65,7.59C54.82,42.92,57.94,49.76,59,57.39a22.41,22.41,0,0,0-7.43-4C59.8,74,34.46,79.66,31.74,96.8a85,85,0,0,0,15.4,9c-3.93-15.13,11.76-25,10.51-40.07,5.47,7.75,6.72,18.84,11.07,25.92a62.94,62.94,0,0,0,7.28-8c-8.44-13.37-6.11-31-19.31-43.42,12,3.66,18.44,15.18,30.65,18.62a72.12,72.12,0,0,0,1.56-13.6C77.41,41.49,69,31.32,57.79,29.69c9.93-5.59,20.36,1.18,31.13-.29V18.91C76.52,22.55,61.11,12.28,48.88,20.29Z" transform="translate(0 -0.05)"/></g><path class="cls-4" d="M138.92,74.26H127.69L116.11,51.92h-.19q.42,5.28.42,8v14.3h-7.61V42.57h11.19l11.54,22h.13c-.2-3.19-.3-5.76-.3-7.69V42.57h7.63Z" transform="translate(0 -0.05)"/><path class="cls-4" d="M178,58.36q0,8-3.94,12.17t-11.47,4.16q-7.47,0-11.44-4.18t-4-12.19c0-5.28,1.32-9.3,4-12.09s6.47-4.16,11.5-4.16,8.86,1.38,11.46,4.14S178,53,178,58.36Zm-21.81,0q0,9.18,6.4,9.19a5.47,5.47,0,0,0,4.81-2.23c1.05-1.49,1.58-3.8,1.58-7s-.54-5.5-1.6-7a5.42,5.42,0,0,0-4.75-2.27Q156.17,49.09,156.17,58.36Z" transform="translate(0 -0.05)"/><path class="cls-4" d="M204.06,42.57h9.59l-10.4,31.69H193.17L182.83,42.57h9.63l4.31,16.06a48,48,0,0,1,1.48,7.46,38,38,0,0,1,.61-3.79c.3-1.53.56-2.72.79-3.59Z" transform="translate(0 -0.05)"/><path class="cls-4" d="M239.07,74.26l-1.56-5.94H227.22l-1.6,5.94H216.2l10.33-31.82H238l10.46,31.82Zm-3.33-13-1.37-5.21c-.33-1.15-.71-2.65-1.17-4.48s-.75-3.15-.9-4c-.12.74-.38,2-.77,3.65s-1.22,5-2.54,10Z" transform="translate(0 -0.05)"/><path class="cls-4" d="M268.51,74.26V42.57h8.57V67.34h12.2v6.92Z" transform="translate(0 -0.05)"/><path class="cls-4" d="M296.92,74.26V42.57h8.6V74.26Z" transform="translate(0 -0.05)"/><path class="cls-4" d="M344.61,58.36q0,8-3.94,12.17t-11.48,4.16q-7.45,0-11.44-4.18t-4-12.19c0-5.28,1.32-9.3,4-12.09s6.47-4.16,11.5-4.16,8.86,1.38,11.46,4.14S344.61,53,344.61,58.36Zm-21.82,0q0,9.18,6.4,9.19A5.46,5.46,0,0,0,334,65.32c1.05-1.49,1.59-3.8,1.59-7s-.54-5.5-1.61-7a5.42,5.42,0,0,0-4.75-2.27Q322.79,49.09,322.79,58.36Z" transform="translate(0 -0.05)"/><path class="cls-4" d="M383.06,74.26H371.83L360.25,51.92h-.19q.42,5.28.42,8v14.3h-7.6V42.57h11.18l11.55,22h.12c-.2-3.19-.29-5.76-.29-7.69V42.57h7.62Z" transform="translate(0 -0.05)"/><path class="cls-4" d="M413.19,64.63a9.38,9.38,0,0,1-1.5,5.25,9.7,9.7,0,0,1-4.31,3.54,15.91,15.91,0,0,1-6.61,1.27,27.34,27.34,0,0,1-5.31-.43A20.23,20.23,0,0,1,391,72.69V65.07a25.9,25.9,0,0,0,5.08,2,19,19,0,0,0,4.86.7,4.61,4.61,0,0,0,2.79-.66,2.07,2.07,0,0,0,.9-1.71,1.86,1.86,0,0,0-.36-1.13,4.31,4.31,0,0,0-1.14-1q-.79-.49-4.23-2a20.61,20.61,0,0,1-4.65-2.73,8.43,8.43,0,0,1-2.29-3,10,10,0,0,1-.75-4.06,8.06,8.06,0,0,1,3.19-6.81q3.18-2.46,8.75-2.46a24.66,24.66,0,0,1,10,2.27L410.56,51a18.93,18.93,0,0,0-7.66-2,4,4,0,0,0-2.44.59,1.77,1.77,0,0,0-.75,1.46,2.11,2.11,0,0,0,1,1.66,37.55,37.55,0,0,0,5.25,2.69,14.14,14.14,0,0,1,5.66,4A8.49,8.49,0,0,1,413.19,64.63Z" transform="translate(0 -0.05)"/></g></g></svg>