<?xml version="1.0" encoding="UTF-8"?>
<svg id="Layer_1" xmlns="http://www.w3.org/2000/svg" viewBox="0 0 150 150">
  <defs>
    <style>.cls-1{fill:#074f98;stroke-width:0px;}</style>
  </defs>
  <path class="cls-1" d="M74.53,90.06c-27.46,0-49.53,18.26-50.28,41.57l-.08,2.33h100.71l-.08-2.33c-.74-23.32-22.84-41.57-50.28-41.57h0ZM28.92,129.45c2.07-19.43,21.96-34.87,45.61-34.87s43.54,15.45,45.61,34.87H28.92Z" />
  <path class="cls-1" d="M74.61,17.76c15.47,0,28.91,7.92,35.47,19.45h-.1v28.07l-18.49,7.11c-1.09-1.17-2.65-1.93-4.39-1.93-3.32,0-6.02,2.7-6.02,6.02s2.7,6.02,6.02,6.02,5.95-2.64,6.01-5.91l19.68-7.56c7.23-.35,13.03-7.34,13.03-15.89,0-7.52-4.48-13.82-10.46-15.48-6.73-14.33-22.44-24.41-40.74-24.41-1.25,0-2.26,1.02-2.26,2.26s1.02,2.26,2.26,2.26l-.02-.02ZM87.1,77.98c-.83,0-1.51-.68-1.51-1.51s.68-1.51,1.51-1.51,1.51.68,1.51,1.51-.68,1.51-1.51,1.51ZM114.49,42.08c3.92,1.26,6.82,5.74,6.82,11.04s-2.9,9.78-6.82,11.04v-22.1h0Z" />
  <path class="cls-1" d="M74.53,85.5c2.54,0,5-.33,7.38-.88l-1.3-4.32c-1.95.44-3.98.69-6.08.69-15.35,0-27.84-12.49-27.84-27.84s12.49-27.84,27.84-27.84,27.84,12.49,27.84,27.84c0,4.62-1.14,8.95-3.15,12.79h4.98c1.7-3.93,2.68-8.23,2.68-12.79,0-17.84-14.52-32.36-32.36-32.36s-32.36,14.52-32.36,32.36,14.52,32.36,32.36,32.36h.01Z" />
</svg>