<svg id="Layer_1" data-name="Layer 1" xmlns="http://www.w3.org/2000/svg" viewBox="0 0 150 150"><defs><style>.cls-1{fill:#074f98;}</style></defs><path class="cls-1" d="M15,62.09c.11-.4.23-.8.33-1.21A13.23,13.23,0,0,1,28.55,50.57q16.11,0,32.23,0h1.49V38.37c-.82,0-1.63,0-2.44,0s-1.49-.48-1.47-1.45.62-1.36,1.55-1.35h5l64.58,0,4,0A1.3,1.3,0,0,1,135,36.87a1.34,1.34,0,0,1-1.45,1.48c-.81,0-1.62,0-2.55,0V80.55c0,2.13-.3,2.43-2.43,2.43H98.12c0,.46-.06.84-.06,1.22,0,5.19,0,10.39,0,15.59a3.06,3.06,0,0,0,.71,1.85Q108.37,112,118,122.35a9.33,9.33,0,0,1,.77.88,1.38,1.38,0,0,1-2,1.84c-.71-.68-1.35-1.41-2-2.13L97.64,104.56c-.29-.31-.6-.61-1-1-.73.77-1.45,1.52-2.16,2.28q-8.58,9.24-17.15,18.47c-.24.26-.47.52-.73.76a1.3,1.3,0,0,1-1.9,0,1.29,1.29,0,0,1-.11-2c1.14-1.28,2.33-2.52,3.5-3.78q8.22-8.85,16.42-17.7a2.43,2.43,0,0,0,.68-1.4c0-5.59,0-11.17,0-16.76a4.69,4.69,0,0,0-.09-.53H64.76c-2.15,0-2.4-.26-2.4-2.45V63.11H50.8v1.44q0,26.15,0,52.28a6.92,6.92,0,0,1-1.38,4.61,5.76,5.76,0,0,1-4.55,2.3c-5.27,0-10.55.05-15.82,0-3.42,0-5.91-2.74-5.93-6.39,0-6,0-12,0-18V97.75c-2.13,0-4.14,0-6.16,0a1.93,1.93,0,0,1-2-1ZM65.21,50.58c2.16,0,4.22-.06,6.28,0a5.82,5.82,0,0,1,5.61,5.56c.3,3.19-1.53,6.11-4.49,6.62a43.56,43.56,0,0,1-6.06.26H65.24V80.11h62.88V38.46H65.21ZM23.12,94.88V93.52c0-5.32,0-10.63,0-16a2.74,2.74,0,0,1,.08-1.26c.27-.44.79-1,1.19-1a2.06,2.06,0,0,1,1.4.9c.24.36.13,1,.13,1.49q0,19.4,0,38.79c0,.51,0,1,.05,1.52a3.11,3.11,0,0,0,2.78,2.88c2.21.12,4.44,0,6.79,0V97.43c0-.39,0-.78,0-1.17A1.25,1.25,0,0,1,36.85,95a1.3,1.3,0,0,1,1.47,1.2,7.59,7.59,0,0,1,0,1.17q0,11.07,0,22.15v1.43c2.3,0,4.45.11,6.58-.06a3.3,3.3,0,0,0,2.23-1.25,5.69,5.69,0,0,0,.77-3Q48,89.87,48,63.1c0-.43,0-.86,0-1.29,0-1,.47-1.62,1.57-1.59H70.74a3.24,3.24,0,0,0,3.34-2.07,3.46,3.46,0,0,0-3.37-4.8c-14.1.06-28.21,0-42.31,0a10.87,10.87,0,0,0-2,.15A10.43,10.43,0,0,0,17.82,64q0,14.9,0,29.78v1.08Z"/><path class="cls-1" d="M36.93,24.48a11.91,11.91,0,1,1-11.88,12A11.88,11.88,0,0,1,36.93,24.48ZM46,36.34a9.09,9.09,0,1,0-9,9.13A9.06,9.06,0,0,0,46,36.34Z"/><path class="cls-1" d="M103.32,71.74H89.38c-1.29,0-1.9-.44-1.91-1.36s.62-1.44,1.86-1.44q14,0,28,0c1.22,0,1.85.55,1.77,1.51s-.78,1.31-1.72,1.3Z"/><path class="cls-1" d="M103.28,48.89c-4.6,0-9.21,0-13.81,0A2.39,2.39,0,0,1,88,48.55a1.55,1.55,0,0,1-.49-1.31,2.17,2.17,0,0,1,1-1.08,2.45,2.45,0,0,1,1.16-.08h27.16c.39,0,.87-.11,1.14.08.43.3,1,.8,1,1.21a2.18,2.18,0,0,1-.91,1.39c-.27.22-.82.12-1.25.12Z"/><path class="cls-1" d="M103.26,60.3H89.33c-.79,0-1.53-.07-1.78-1a1.27,1.27,0,0,1,.92-1.73,4.53,4.53,0,0,1,1.28-.11h27c.27,0,.55,0,.82,0,.9.06,1.51.47,1.48,1.44s-.63,1.36-1.55,1.35H103.26Z"/></svg>