<svg id="Layer_1" data-name="Layer 1" xmlns="http://www.w3.org/2000/svg" viewBox="0 0 150 150"><defs><style>.cls-1{fill:#074f98;}</style></defs><path class="cls-1" d="M135,20.39a8.16,8.16,0,0,1-2.43,3.76Q78.07,78.6,23.62,133.08a5,5,0,0,1-4.47,1.81,4.42,4.42,0,0,1-3.76-3.11,4.49,4.49,0,0,1,1.15-4.85c2.67-2.69,5.35-5.36,8-8q51-51,101.95-102c2.92-2.93,7.65-1.76,8.35,2.15,0,.07.08.12.12.19Z"/><path class="cls-1" d="M77.58,15c2.47.32,5,.55,7.41,1a59.85,59.85,0,0,1,15.65,5,4.66,4.66,0,0,1-3.93,8.46,53.73,53.73,0,0,0-14-4.4,48,48,0,0,0-36.56,8.79A50.52,50.52,0,0,0,25,67.4a48.36,48.36,0,0,0,3.68,27.91c.25.57.54,1.13.77,1.7A4.67,4.67,0,0,1,27,103.19a4.62,4.62,0,0,1-6.11-2.34,62.32,62.32,0,0,1-5-15.42C10.33,54.57,30.41,25.57,58.74,17.34a54.2,54.2,0,0,1,12.19-2.15A7.31,7.31,0,0,0,72,15Z"/><path class="cls-1" d="M135,78.28c-.38,2.65-.66,5.32-1.15,8-4.5,24.18-24.2,43.71-48.39,47.83a60,60,0,0,1-35.78-4.59,4.74,4.74,0,0,1-3-4.74,4.43,4.43,0,0,1,3.59-4.1,6.5,6.5,0,0,1,3.38.42A54.73,54.73,0,0,0,67.9,125.2a48.52,48.52,0,0,0,34.27-7.75c12.51-8.25,20.31-19.77,22.85-34.62a48.41,48.41,0,0,0-3.71-27.92,13.46,13.46,0,0,1-1-2.84A4.48,4.48,0,0,1,123.45,47,4.41,4.41,0,0,1,129,49.38a81.12,81.12,0,0,1,3.11,7.68,51.83,51.83,0,0,1,2.65,13.28,7.36,7.36,0,0,0,.19.91Z"/></svg>