<svg id="Layer_1" data-name="Layer 1" xmlns="http://www.w3.org/2000/svg" viewBox="0 0 150 150"><defs><style>.cls-1{fill:#074f98;}</style></defs><path class="cls-1" d="M50.23,130C34.87,122.4,24,110.8,18.29,94.59a58.62,58.62,0,0,1-.52-37.65,60,60,0,0,1,115.28,2.89,58.49,58.49,0,0,1-3.92,41.05c-6.29,13.17-16.26,22.69-29.43,29.15h31.63a11.33,11.33,0,0,1,1.65.07,2.46,2.46,0,0,1,0,4.83,9.62,9.62,0,0,1-1.52.07H18.58c-.34,0-.67,0-1,0a2.48,2.48,0,1,1,0-5c.42,0,.85,0,1.27,0H50.23ZM75,20A55,55,0,1,0,130,75,55.15,55.15,0,0,0,75,20Z"/><path class="cls-1" d="M75.05,27.51A47.5,47.5,0,1,1,27.5,74.92,47.53,47.53,0,0,1,75.05,27.51ZM43.21,47C28.78,62.62,28,89.69,46.48,106.46c18.24,16.54,43.64,12.78,56.65.15-4-4-8-8-12.07-12a1.54,1.54,0,0,0-1.39,0q-6.45,3.54-12.83,7.2a3.37,3.37,0,0,1-3.68,0q-10.57-6-21.22-11.93a3.59,3.59,0,0,1-2.09-3.54q.07-13.84,0-27.68c0-1.49.21-2.77,1.62-3.5Zm3.63-3.63c3.27,3.27,6.45,6.48,9.7,9.63a1.69,1.69,0,0,0,1.44.12c5.17-1.7,10.32-3.49,15.5-5.17a4.44,4.44,0,0,1,2.57-.14c7.34,2.4,14.66,4.89,22,7.37a2.58,2.58,0,0,1,2.08,2.92c0,9.6,0,19.21,0,28.81a2.88,2.88,0,0,1-1.61,2.79c-1.1.6-2.19,1.24-3.09,1.75L107,102.93A42.41,42.41,0,0,0,46.84,43.32ZM72.41,95.57c0-.25.07-.41.07-.57,0-6.09,0-12.18,0-18.27a2.45,2.45,0,0,0-.76-1.47C68.31,71.82,64.84,68.47,61.5,65c-1.82-1.9-4.29-2.33-6.52-3.52,0,.35-.07.52-.07.69,0,7.61,0,15.22,0,22.83a1.69,1.69,0,0,0,.75,1.24q8,4.59,16.11,9.1A4.86,4.86,0,0,0,72.41,95.57Zm22.68-34.1L93.87,62c-4.45,1.95-8.84,4.07-13.38,5.77-2.42.9-3.39,2.13-3,4.67a4,4,0,0,0,1.11,2.65c3.57,3.49,7.08,7,10.61,10.58,2.3,2.29,2.31,2.32,5.09.6a1.92,1.92,0,0,0,.79-1.35c.07-2.79,0-5.58,0-8.38Zm-34-4.16-.16.48a33.57,33.57,0,0,0,3.85,2.48c3,1.44,6.07,2.75,9.16,4a3,3,0,0,0,2.1,0c4.51-1.9,9-3.89,13.47-5.86a9.23,9.23,0,0,0,1-.55l-15-5a1.46,1.46,0,0,0-.85,0C70.13,54.27,65.63,55.8,61.12,57.31Zm16.45,24V95.69l9.17-5.15Z"/></svg>