<?xml version="1.0" encoding="UTF-8"?>
<svg id="Layer_1" xmlns="http://www.w3.org/2000/svg" viewBox="0 0 150 150">
  <defs>
    <style>.cls-1{fill:#074f98;fill-rule:evenodd;}.cls-1,.cls-2{stroke-width:0px;}.cls-2{fill:#fff;}</style>
  </defs>
  <path class="cls-1" d="M72.06,39.92h-1.93c-10.61,0-19.23,8.5-19.42,19.07,0,.12,0,.59,0,.71.19,10.57,8.81,19.08,19.42,19.08h10.68c6.96,0,12.6,5.64,12.6,12.6s-5.64,12.6-12.6,12.6h-10.69c-3.34,0-6.54-1.32-8.9-3.69-2.36-2.36-3.69-5.56-3.69-8.9,0-1.88-1.53-3.41-3.41-3.41s-3.41,1.53-3.41,3.41c0,5.15,2.05,10.09,5.69,13.73,3.64,3.64,8.58,5.69,13.73,5.69h1.93v7.26c0,1.88,1.53,3.41,3.41,3.41s3.41-1.53,3.41-3.41v-7.26h1.93c10.73,0,19.43-8.7,19.43-19.43h0c0-10.73-8.7-19.43-19.43-19.43h-10.68c-6.84,0-12.41-5.45-12.6-12.25,0-.11,0-.51,0-.59.13-6.85,5.72-12.36,12.6-12.36h10.68c6.96,0,12.6,5.64,12.6,12.6v.21c.06,1.11.53,1.83,1.11,2.31.61.56,1.42.9,2.31.9,0,0,3.41-.2,3.41-3.41h0c0-10.73-8.7-19.43-19.43-19.43h-1.93v-7.26c0-1.88-1.53-3.41-3.41-3.41s-3.41,1.53-3.41,3.41v7.26Z" />
  <path class="cls-2" d="M75.47,122.06c-2.2,0-3.99-1.79-3.99-3.99v-6.69h-1.35c-5.34,0-10.36-2.08-14.14-5.85-3.78-3.78-5.86-8.8-5.86-14.15,0-2.2,1.79-3.99,3.99-3.99s3.99,1.79,3.99,3.99c0,3.21,1.25,6.22,3.52,8.5,2.27,2.27,5.28,3.51,8.49,3.51h10.69c6.63,0,12.02-5.39,12.02-12.02s-5.39-12.02-12.02-12.02h-10.68c-10.84,0-19.81-8.81-20-19.65,0-.11,0-.62,0-.74.2-10.82,9.17-19.62,20-19.62h1.35v-6.69c0-2.2,1.79-3.99,3.99-3.99s3.99,1.79,3.99,3.99v6.69h1.34c11.03,0,20.01,8.98,20.01,20.01,0,2.98-2.59,3.91-3.96,3.99h0c-1.03,0-1.98-.37-2.72-1.04-.79-.65-1.23-1.57-1.29-2.71v-.23c0-6.64-5.4-12.04-12.03-12.04h-10.68c-6.51,0-11.9,5.29-12.01,11.79,0,.08,0,.28,0,.43v.15c.18,6.54,5.46,11.68,12.01,11.68h10.68c11.03,0,20.01,8.98,20.01,20s-8.98,20.01-20.01,20.01h-1.34v6.69c0,2.2-1.79,3.99-3.99,3.99ZM54.12,88.55c-1.56,0-2.83,1.27-2.83,2.83,0,5.03,1.96,9.76,5.52,13.32,3.56,3.56,8.29,5.52,13.32,5.52h2.51v7.84c0,1.57,1.27,2.84,2.84,2.84s2.84-1.27,2.84-2.84v-7.84h2.5c10.4,0,18.85-8.45,18.85-18.85s-8.45-18.85-18.85-18.85h-10.68c-7.19,0-12.98-5.63-13.17-12.82v-.16c0-.17,0-.41,0-.48.13-7.11,6.04-12.91,13.17-12.91h10.68c7.27,0,13.18,5.91,13.18,13.18v.2c.05.8.33,1.41.89,1.87.55.5,1.23.76,1.94.76.08,0,2.84-.21,2.84-2.83,0-10.39-8.45-18.85-18.85-18.85h-2.5v-7.84c0-1.56-1.27-2.83-2.84-2.83s-2.84,1.27-2.84,2.83v7.84h-2.5c-10.21,0-18.66,8.3-18.84,18.5,0,.12,0,.57,0,.68.18,10.22,8.63,18.52,18.84,18.52h10.68c7.27,0,13.18,5.91,13.18,13.18s-5.91,13.18-13.18,13.18h-10.69c-3.52,0-6.83-1.37-9.31-3.85-2.49-2.5-3.86-5.8-3.86-9.32,0-1.56-1.27-2.83-2.84-2.83Z" />
  <path class="cls-1" d="M32.09,36.81l8.94,8.94c1.33,1.33,3.5,1.33,4.83,0s1.33-3.5,0-4.83l-8.94-8.94c19.22-17.11,47.13-19.23,68.5-6.35,1.61.97,3.71.46,4.68-1.16.97-1.61.46-3.71-1.16-4.68C84.01,4.76,51.11,7.99,29.61,29.5c-25.32,25.31-25.32,66.42,0,91.73,25.31,25.32,66.42,25.32,91.73,0,21.6-21.6,24.77-54.7,9.5-79.67-.98-1.61-3.09-2.12-4.69-1.13s-2.12,3.09-1.13,4.69c13.09,21.41,11.03,49.49-6.16,68.8l-9.26-9.26c-1.33-1.33-3.5-1.33-4.83,0-1.33,1.33-1.33,3.5,0,4.83l9.26,9.26c-22.78,20.27-57.75,19.49-79.59-2.34-21.84-21.84-22.62-56.81-2.34-79.59Z" />
  <path class="cls-2" d="M75.47,140.79c-17.49,0-33.92-6.8-46.28-19.16-12.35-12.35-19.16-28.78-19.16-46.28s6.8-33.92,19.16-46.28C50.52,7.76,83.43,3.73,109.24,19.29c.91.55,1.56,1.42,1.81,2.46.26,1.04.09,2.11-.46,3.02-.54.91-1.42,1.55-2.45,1.81-1.05.26-2.11.1-3.03-.45-21.16-12.75-48.75-10.32-67.36,5.88l8.5,8.5c1.56,1.56,1.56,4.09,0,5.65-1.56,1.56-4.09,1.56-5.65,0l-8.5-8.5c-19.77,22.7-18.62,56.99,2.73,78.34,21.35,21.34,55.64,22.5,78.34,2.72l-8.83-8.83c-.76-.75-1.17-1.76-1.17-2.82s.42-2.07,1.17-2.82c1.5-1.5,4.13-1.51,5.65,0l8.82,8.82c16.3-18.71,18.66-46.44,5.7-67.65-.56-.91-.73-1.97-.48-3.01s.89-1.92,1.8-2.48c1.87-1.15,4.34-.55,5.49,1.32,15.82,25.87,11.87,58.93-9.59,80.39-12.35,12.35-28.79,19.16-46.28,19.16ZM75.47,11.03c-16.6,0-33.03,6.44-45.46,18.87-12.13,12.13-18.82,28.28-18.82,45.46s6.68,33.32,18.82,45.45c12.13,12.14,28.28,18.82,45.46,18.82s33.32-6.69,45.45-18.82c21.08-21.08,24.96-53.55,9.42-78.96-.81-1.33-2.57-1.76-3.9-.94-.65.4-1.1,1.02-1.28,1.76-.18.74-.05,1.49.34,2.14,13.34,21.82,10.78,50.39-6.22,69.49l-.41.46-9.69-9.69c-1.08-1.09-2.95-1.07-4.01,0-.54.53-.83,1.24-.83,2s.29,1.47.83,2l9.69,9.7-.46.41c-23.15,20.6-58.46,19.55-80.39-2.37-21.93-21.94-22.96-57.25-2.37-80.39l.41-.46,9.37,9.38c1.11,1.1,2.91,1.1,4.01,0,1.1-1.11,1.1-2.91,0-4.01l-9.38-9.38.46-.41c18.98-16.89,47.43-19.52,69.19-6.41.65.39,1.41.51,2.15.32.73-.18,1.35-.64,1.74-1.28.39-.65.51-1.41.33-2.15-.19-.74-.64-1.35-1.29-1.74-10.31-6.22-21.78-9.25-33.17-9.25Z" />
</svg>