<svg id="Layer_1" data-name="Layer 1" xmlns="http://www.w3.org/2000/svg" viewBox="0 0 150 150"><defs><style>.cls-1{fill:#074f98;}</style></defs><path class="cls-1" d="M49.74,75.21a1,1,0,0,0,.08-.24c.31-2.72-.12-4.78-2.73-6.67C42.58,65,40.5,60.09,40.18,54.49c0-.23,0-.46-.06-.82-2.41.17-4.66-.08-6.31-2.05a5.66,5.66,0,0,1-1.38-3.77c0-3.29,2.19-5.3,6.47-5.9-.6-1.21-1.2-2.39-1.78-3.57a12,12,0,0,1,7-17A6.68,6.68,0,0,0,46,20.29a22.44,22.44,0,0,1,9.85-4.89A19.55,19.55,0,0,1,67.3,16.59c2,.85,4,1.76,5.93,2.7a15.58,15.58,0,0,1,7.71,20.32c-.32.78-.65,1.55-1,2.34,4.55.64,6.72,2.65,6.65,6.07s-2.35,5.27-7.54,5.73c-.32,1.78-.5,3.59-1,5.31a18.77,18.77,0,0,1-8,10.81,1.54,1.54,0,0,0-.86,1.53c.06,1.24,0,2.49,0,3.85L76,76.4c4.25.72,8.5,1.41,12.75,2.15A3,3,0,0,0,91.07,78,6.51,6.51,0,0,1,94.32,77c6.49-.1,13-.08,19.47,0a5.74,5.74,0,0,1,5.71,5.71c0,1.92,0,3.85,0,5.89h11.33A3.87,3.87,0,0,1,135,92.68q0,12.58,0,25.16v12.82c0,2.73-1.55,4.31-4.26,4.31H17.54c-1.89,0-2.53-.65-2.53-2.54q0-19.79,0-39.55a13.56,13.56,0,0,1,11.87-13.8C34.27,77.9,41.66,76.64,49,75.41A5.6,5.6,0,0,0,49.74,75.21ZM88.5,82.49a7.14,7.14,0,0,0-.74-.21c-5.83-1-11.69-1.88-17.51-3a3.65,3.65,0,0,0-4.07,1.37,1.35,1.35,0,0,0-.31,1.49A21.25,21.25,0,0,1,67,85.61,3.9,3.9,0,0,1,66.67,88c-.73,1.38-1.74,2.61-2.54,4a2,2,0,0,0-.15,1.5c.93,2.49,2,4.93,2.92,7.41a3.65,3.65,0,0,1,.21,2c-1.84,8.13-3.74,16.24-5.6,24.36-.25,1.1-.73,1.89-1.94,2-1,.07-1.72-.6-2-2-1.87-8-3.74-16.08-5.55-24.13a4,4,0,0,1,.16-2.2c.91-2.49,2-4.93,2.91-7.42a2,2,0,0,0-.16-1.5c-.82-1.38-1.84-2.65-2.61-4.06A3.35,3.35,0,0,1,52,85.72a33.36,33.36,0,0,1,1.13-3.56,1.67,1.67,0,0,0,.13-.92,3.92,3.92,0,0,0-3.54-2c-7.07,1.18-14.12,2.51-21.22,3.48s-9.79,5.86-9.71,11.23c.2,11.89.06,23.79.06,35.68V131H34.39V98.27h3.89V131H73.07v-1.48q0-18.27,0-36.53c0-3,1.49-4.5,4.54-4.5h9.68c.39,0,.78,0,1.21-.06ZM46.59,37.31c-.88,1.88-2.31,3.61-2.43,5.43a77.27,77.27,0,0,0,.18,13.52c.82,7.33,7.68,12.92,15.21,12.91s14.29-5.63,15.17-13c.43-3.62,0-7.33.33-11,.26-3.09-1.53-5.28-2.64-7.86C63.79,43.65,55.29,43.66,46.59,37.31Zm51.64,70.38c0-1.74,0-3.47,0-5.2s.69-2.34,2.36-2.35c2.26,0,4.51,0,6.77,0,1.82,0,2.47.67,2.48,2.49v5.2c4.32,0,8.51.21,12.68-.06a9,9,0,0,0,7.74-5.61c1.46-3.14.66-6.46.89-9.69H76.94c0,2,0,4,0,6,.09,4.58,3.34,8.73,7.9,9.17C89.22,108,93.68,107.69,98.23,107.69ZM77,123.27h54.15V107.69a13.72,13.72,0,0,1-9.51,4c-3,0-6,0-9.07,0h-2.71c0,.73,0,1.32,0,1.92a5.8,5.8,0,1,1-11.6,0c0-.63,0-1.25,0-1.92H86.67A13.07,13.07,0,0,1,80.08,110c-1-.61-2-1.38-3.1-2.13ZM56.06,29.54c-4.61-5.44-9.81-6.41-13.84-2.65-3.18,3-3.44,8.71-.47,11.54.77-1.53,1.51-3,2.28-4.54.87-1.7,1.95-1.93,3.51-.8,1.1.81,2.17,1.68,3.31,2.43a15.29,15.29,0,0,0,12.23,2.25c3.14-.7,5.61-2.54,8.08-4.43,2-1.51,2.94-1.28,4,.92.66,1.31,1.31,2.61,2,4.11a11.81,11.81,0,0,0,1-6.29,11.51,11.51,0,0,0-7-9.44C68,21.16,64.82,19.25,61.1,19a16.08,16.08,0,0,0-9.76,2.29,13.45,13.45,0,0,1,7.82,6.22Zm75,97.77H77V131h54Zm-27.7-38.87h12.27c0-1.81,0-3.54,0-5.26s-.69-2.4-2.43-2.4c-4.6,0-9.19,0-13.78,0H97.16A14.14,14.14,0,0,1,103.37,88.44Zm-44,29.5h.31q1.76-7.62,3.49-15.25a1.73,1.73,0,0,0-.06-.93c-.89-2.29-1.79-4.57-2.75-6.82a1.11,1.11,0,0,0-.85-.57,1.19,1.19,0,0,0-.84.58c-.4.79-.6,1.68-1,2.44a11.81,11.81,0,0,0-.83,9.81C57.91,110.7,58.54,114.35,59.37,117.94Zm.15-36C61.43,80,63.25,78.21,65,76.37a1.06,1.06,0,0,0,.27-.63c0-1.16,0-2.31,0-3.59a20.13,20.13,0,0,1-11.61,0c0,1.11,0,2,0,2.95A2.1,2.1,0,0,0,54,76.36C55.78,78.22,57.61,80,59.52,82Zm42.59,22.11c0,3.31,0,6.51,0,9.72a1.87,1.87,0,0,0,1.89,1.83,1.84,1.84,0,0,0,1.92-1.78c.06-3.24,0-6.48,0-9.77Zm-9.63-21v5.34H99.2A9.8,9.8,0,0,0,92.48,83.11Zm-30,1.45c-2.94,2.26-2.94,2.26-6,0a2.14,2.14,0,0,0,.07,2.9A20.27,20.27,0,0,1,58,89.56c.88,1.32,2.1,1.31,3,0a21.11,21.11,0,0,1,1.29-1.9A2.25,2.25,0,0,0,62.51,84.56ZM40.12,46c-1.36.06-2.82-.46-3.53,1a2.41,2.41,0,0,0,.13,2c.82,1.26,2.16.81,3.4.78Zm38.8,3.85c1.37-.08,2.85.44,3.53-1.07a2.4,2.4,0,0,0-.15-2c-.83-1.26-2.18-.76-3.38-.76Z"/></svg>