<?xml version="1.0" encoding="UTF-8"?>
<svg id="Layer_1" xmlns="http://www.w3.org/2000/svg" viewBox="0 0 150 150">
  <defs>
    <style>.cls-1{fill:#074f98;stroke-width:0px;}</style>
  </defs>
  <path class="cls-1" d="M19.05,49.22l1.07-7.48c.37-2.56,1.47-4.92,3.16-6.62,1.65-1.65,3.84-2.68,6.43-2.68h57.91c2.64,0,5.04,1.09,6.79,2.83h.01c1.74,1.76,2.82,4.16,2.82,6.79v10.11h25.09c3.01,0,5.56,1.2,7.48,3.12,1.99,1.99,3.28,4.76,3.69,7.78l1.5,10.9,8.74,1.86c1.08.23,1.83,1.19,1.83,2.26v25.29c0,1.28-1.03,2.31-2.3,2.31h-14.29c.08.57.13,1.15.13,1.73,0,3.42-1.39,6.52-3.63,8.77l-.14.13c-2.23,2.17-5.28,3.5-8.63,3.5s-6.51-1.39-8.75-3.63c-2.25-2.24-3.64-5.34-3.64-8.77,0-.58.04-1.16.13-1.73h-49.27c.08.57.13,1.15.13,1.73,0,3.42-1.39,6.52-3.63,8.77l-.14.13c-2.23,2.17-5.28,3.5-8.62,3.5s-6.52-1.39-8.76-3.63c-2.25-2.24-3.64-5.34-3.64-8.77,0-.58.04-1.16.13-1.73H13.64c-1.28,0-2.31-1.03-2.31-2.31l.05-.47,2-13.99H4.66c-1.28,0-2.31-1.03-2.31-2.31s1.03-2.31,2.31-2.31h21.41c1.28,0,2.31,1.03,2.31,2.31s-1.03,2.31-2.31,2.31h-8.04l-1.74,12.15h76.33v-59.01c0-1.37-.57-2.62-1.47-3.53-.91-.91-2.16-1.47-3.53-1.47H29.72c-1.26,0-2.34.51-3.16,1.32-.99.99-1.64,2.42-1.86,4l-.97,6.83h8.21c1.28,0,2.31,1.03,2.31,2.31s-1.03,2.31-2.31,2.31H10.52c-1.28,0-2.31-1.03-2.31-2.31s1.03-2.31,2.31-2.31h8.55-.01ZM124.3,105.69h-15.17l-.04.2v.08c-.1.45-.14.93-.14,1.44,0,2.15.87,4.09,2.28,5.5,1.4,1.41,3.35,2.28,5.5,2.28s4-.83,5.4-2.17l.1-.11c1.4-1.4,2.28-3.35,2.28-5.5,0-.51-.05-1-.13-1.44l-.06-.28h0ZM50.48,105.69h-15.17l-.04.2v.08c-.1.45-.14.93-.14,1.44,0,2.15.87,4.09,2.28,5.5,1.4,1.41,3.35,2.28,5.5,2.28s4-.83,5.4-2.17l.1-.11c1.4-1.4,2.28-3.35,2.28-5.5,0-.51-.05-1-.13-1.44l-.06-.28h0ZM4.66,65.53c-1.28,0-2.31-1.03-2.31-2.31s1.03-2.31,2.31-2.31h21.41c1.28,0,2.31,1.03,2.31,2.31s-1.03,2.31-2.31,2.31H4.66ZM10.5,77.23c-1.28,0-2.31-1.03-2.31-2.31s1.03-2.31,2.31-2.31h21.41c1.28,0,2.31,1.03,2.31,2.31s-1.03,2.31-2.31,2.31H10.5ZM97.25,56.8v44.27h43.71v-21.11l-8.48-1.81c-.93-.2-1.67-.96-1.8-1.95l-1.72-12.51c-.28-2.01-1.12-3.85-2.39-5.13-1.09-1.09-2.53-1.77-4.22-1.77h-25.09Z" />
</svg>