<?xml version="1.0" encoding="UTF-8"?>
<svg id="Layer_1" xmlns="http://www.w3.org/2000/svg" viewBox="0 0 150 150">
  <defs>
    <style>.cls-1{fill:#074f98;stroke-width:0px;}</style>
  </defs>
  <path class="cls-1" d="M110.73,26.29h0s-.05,0-.05,0c-.18,0-.36.02-.54.07h-.03s-56.83,16.84-56.83,16.84h17.31l38.68-11.46.27.55.07.14.34.61.08.13.39.58.09.13.42.55.1.12.46.52.1.12.49.49.11.11.52.46.12.1.55.43.13.09.58.39.13.08.6.35.14.08.61.3.14.06.63.26.14.05.65.22.15.04.66.18.16.04.67.13.16.02.68.09h.15s.69.06.69.06h.16s.69,0,.69,0h.16s.68-.05.68-.05h.16s.56-.09.56-.09l1.22,4.1h5.13s-.01-.05-.02-.08c-2.27-7.65-2.28-7.68-2.28-7.68-.34-.99-1.26-1.61-2.26-1.61-.22,0-.45.03-.67.1-.03,0-.06.02-.09.03l-.57.2h0s-.51.13-.51.13h0l-.52.11h0s-.52.07-.52.07l-.52.04h-.53l-.53-.04-.52-.07-.52-.1-.51-.13-.51-.17-.48-.2-.48-.23-.47-.27-.44-.29-.43-.33-.4-.36-.38-.38-.35-.41-.32-.42-.29-.45-.26-.46-.23-.49-.2-.49-.17-.51-.15-.6c-.28-1.08-1.25-1.79-2.3-1.79h0s0,0,0,0ZM127.65,12.57h-.02c-.22,0-.43.04-.66.1L23.88,43.21h17.33l84.82-25.12,7.44,25.12h5.11s-8.53-28.89-8.53-28.89c-.32-1.07-1.31-1.76-2.37-1.76h-.02ZM28.43,55.15c93.06,0,0,0,0,0-1.31.05-2.33,1.16-2.29,2.47l.02.61-.02.54-.05.53-.08.54-.12.52-.16.51-.19.5-.22.49-.25.47-.29.45-.31.44-.34.41-.37.39-.39.36-.41.33-.43.31-.45.28-.46.24-.49.22-.49.19-.51.15-.51.11-.52.08-.52.05h-.54s-.6-.01-.6-.01h-.1c-1.27,0-2.32,1-2.38,2.28v8.02c0,1.35,1.1,2.46,2.46,2.46s2.46-1.1,2.46-2.46v-5.64l.56-.09.16-.02.67-.16.15-.04.66-.19.15-.05.64-.23.14-.06.63-.28.14-.07.61-.32.14-.08.58-.36.13-.09.56-.39.13-.1.53-.43.12-.1.51-.46.11-.11.48-.51.11-.12.44-.53.1-.13.4-.57.09-.13.37-.59.08-.14.33-.61.07-.14.29-.63.06-.14.25-.65.05-.15.2-.67.04-.15.16-.67.03-.16.1-.61h88.4l.1.61.03.16.16.67.04.15.2.67.05.15.25.65.06.14.29.63.07.14.32.61.08.14.37.59.09.13.41.57.1.13.44.53.11.12.48.51.11.11.5.46.12.1.53.43.13.1.56.39.13.09.58.36.14.08.61.32.14.07.63.28.14.06.64.23.14.05.66.19.15.04.67.16.16.02.56.09v5.64c0,1.36,1.1,2.46,2.46,2.46h0c1.35,0,2.46-1.11,2.46-2.46,0-7.99,0-8.02,0-8.02-.05-1.28-1.11-2.28-2.38-2.28h-.1l-.6.02h-.53s-.53-.06-.53-.06l-.52-.08-.51-.11-.51-.15-.49-.19-.49-.22-.46-.24-.45-.28-.43-.31-.41-.33-.39-.36-.37-.39-.34-.41-.31-.44-.28-.45-.25-.47-.22-.49-.19-.5-.15-.51-.12-.52-.09-.54-.05-.53-.02-.54.02-.61c.05-1.32-.97-2.42-2.29-2.47H28.43ZM39.43,84.14c1.64,0,2.98,1.34,2.98,2.98s-1.34,2.98-2.98,2.98-2.98-1.34-2.98-2.98,1.34-2.98,2.98-2.98h0ZM110.59,84.14h0c1.64,0,2.97,1.34,2.97,2.98s-1.34,2.98-2.98,2.98-2.98-1.34-2.98-2.98,1.34-2.98,2.99-2.98ZM39.42,79.22h0c-4.36,0-7.9,3.53-7.9,7.9s3.54,7.9,7.91,7.9,7.91-3.54,7.91-7.9-3.54-7.9-7.91-7.9ZM110.58,79.22c-4.36,0-7.9,3.53-7.9,7.9s3.54,7.9,7.9,7.9,7.91-3.54,7.91-7.9-3.54-7.9-7.91-7.9h0ZM75.01,68.61c10.22,0,18.51,8.29,18.51,18.51s-8.29,18.51-18.51,18.51-18.51-8.29-18.51-18.51,8.29-18.51,18.51-18.51h0ZM75,63.69h0c-12.94,0-23.42,10.49-23.42,23.43s10.49,23.43,23.43,23.43,23.43-10.49,23.43-23.43-10.49-23.43-23.43-23.43h0ZM17.4,95.15c-1.35,0-2.44,1.1-2.44,2.45v8.02c.05,1.28,1.11,2.29,2.38,2.29h.1l.6-.03h0s.54.02.54.02l.52.05.52.08h0s.51.12.51.12l.51.15.49.19.49.21.46.25.45.28.43.31.41.33.39.36.37.4.34.41.31.43.29.46.25.47.22.49.19.49.16.52.12.52.08.54.05.53.02.54-.02.61c-.05,1.31.97,2.42,2.29,2.47h93.14c1.31-.05,2.34-1.16,2.29-2.47l-.02-.61.02-.54.05-.53.09-.54.12-.52.15-.52.19-.49.22-.49.25-.47.28-.46.31-.43.34-.41.37-.4.39-.36.41-.33.43-.31.45-.28.46-.25.49-.21.49-.19.51-.15.51-.11h0s.52-.08.52-.08l.53-.05h.53v-.02l.6.03h.1c1.27,0,2.32-1,2.38-2.29,0-.03,0-8.02,0-8.02,0-1.36-1.1-2.46-2.46-2.46h0c-1.36,0-2.46,1.1-2.46,2.46v5.64l-.56.08-.16.03-.67.15-.15.04-.66.19-.14.05-.64.24-.14.05-.63.28-.14.07-.61.32-.14.08-.58.36-.13.09-.56.39-.13.1-.53.43-.12.1-.5.47-.11.11-.48.51-.11.11-.44.54-.1.13-.41.56-.09.13-.37.59-.08.14-.32.61-.07.14-.29.63-.06.14-.25.65-.05.15-.2.66-.04.16-.16.67-.03.16-.1.61H30.8l-.1-.61-.04-.16-.16-.67-.04-.16-.2-.66-.05-.15-.25-.65-.06-.14-.29-.63-.07-.14-.33-.61-.08-.14-.37-.59-.09-.13-.4-.56-.1-.13-.44-.54-.11-.11-.48-.51-.11-.11-.51-.47-.12-.1-.53-.43-.13-.1-.56-.39-.13-.09-.58-.36-.14-.08-.6-.32-.14-.07-.63-.28-.14-.05-.64-.24-.15-.05-.66-.19-.15-.04-.67-.15-.16-.03-.56-.08v-5.64c0-1.36-1.11-2.45-2.47-2.45h-.01ZM139.15,51.74v70.77H10.85V51.73h128.29ZM8.38,46.81h0c-.64,0-1.26.26-1.72.72-.46.46-.72,1.09-.72,1.74v75.71c0,.65.26,1.28.72,1.74s1.09.72,1.74.72h133.22c1.36,0,2.46-1.11,2.46-2.46V49.27c0-1.36-1.1-2.46-2.46-2.46H8.38Z" />
</svg>