<svg id="Layer_1" data-name="Layer 1" xmlns="http://www.w3.org/2000/svg" viewBox="0 0 150 150"><defs><style>.cls-1{fill:#074f98;}</style></defs><path class="cls-1" d="M64,22.38l.75.53,4.91,3.41,2,1.38a6,6,0,0,0,6.85,0l2.87-2,4.73-3.3c1.34,2.19,2.81,4.62,4.29,7.11a7,7,0,0,0,6.14,3.63A8.26,8.26,0,0,0,98.11,33c2.73-.57,5.54-1.11,8.16-1.6.34,2.68.68,5.46,1,8.17A7.14,7.14,0,0,0,113,45.94c2.37.53,4.8,1.1,7.15,1.65l.89.21c-.76,2.55-1.55,5.17-2.36,7.7A7.35,7.35,0,0,0,121.51,64c2.48,1.8,4.53,3.35,6.37,4.8-1.39,1.63-2.81,3.27-4.19,4.86l-1.88,2.18a6,6,0,0,0-.72,6.81l1.65,3,2.84,5.15c-2.42,1.15-4.9,2.33-7.34,3.42a7.25,7.25,0,0,0-4.43,7.64c.26,2.68.49,5.42.72,8.09-3,.07-5.69.11-8.25.12a7.15,7.15,0,0,0-7,5.08c-.87,2.59-1.76,5.17-2.68,7.78-2.3-1-4.67-2-6.94-3a8.73,8.73,0,0,0-3.6-.84A7.72,7.72,0,0,0,80.15,122c-1.59,1.82-3.26,3.57-5,5.42l-.11.11c-1.85-2-3.75-4-5.58-6a7.14,7.14,0,0,0-5.38-2.5,7.72,7.72,0,0,0-3.15.7c-2.48,1.09-5,2.16-7.52,3.2v0c-.86-2.41-1.67-4.69-2.39-7a7.9,7.9,0,0,0-7.94-5.88h-.17l-1.65,0c-1.88,0-3.82,0-5.73-.1l.13-1.61c.19-2.18.38-4.43.59-6.63a7.13,7.13,0,0,0-4.33-7.45c-2.09-1-4.21-2-6.27-2.92l-1.17-.55,2.82-5.13,1.66-3a6,6,0,0,0-.72-6.82L26,73.25l-3.82-4.43c2.11-1.61,4.28-3.27,6.42-4.83a7.37,7.37,0,0,0,2.75-8.53c-.81-2.52-1.6-5.12-2.36-7.66l.35-.08c2.49-.59,5.07-1.2,7.59-1.74a7.29,7.29,0,0,0,5.89-6.58c.27-2.41.59-5.17,1-8,2.72.5,5.41,1,8.09,1.56a8.12,8.12,0,0,0,1.67.18,7,7,0,0,0,6.19-3.66c1.39-2.35,2.81-4.72,4.25-7.08M75,114.79h0a39.79,39.79,0,0,0,0-79.57h-.1A39.79,39.79,0,0,0,75,114.79M86.94,15.31a4.48,4.48,0,0,0-2.51.91c-3.12,2.15-6.22,4.33-9.4,6.55L68.13,18c-.93-.65-1.84-1.31-2.79-1.94a4,4,0,0,0-2.21-.73,3.55,3.55,0,0,0-3,1.88q-2.82,4.57-5.56,9.22c-.29.49-.56.71-1,.71a2.68,2.68,0,0,1-.46-.05c-3.51-.73-7-1.38-10.57-2a4.73,4.73,0,0,0-.9-.09,3.35,3.35,0,0,0-3.44,3.19c-.5,3.52-.92,7-1.32,10.57-.1.81-.34,1.21-1.2,1.4-3.39.73-6.76,1.54-10.14,2.33-2.58.6-3.65,2.45-2.89,5,1,3.29,2,6.58,3,9.85A1.37,1.37,0,0,1,25,59.14c-2.77,2-5.49,4.13-8.22,6.21-2.21,1.69-2.39,3.71-.57,5.82l7.44,8.6-5.44,9.9c-1.4,2.56-.77,4.49,1.86,5.72,3.11,1.45,6.2,2.94,9.32,4.36a1.19,1.19,0,0,1,.84,1.41c-.3,3.1-.55,6.22-.82,9.33,0,.31-.07.62-.09.93-.2,3,1.08,4.42,4,4.5,2.62.07,5.25.15,7.87.15l1.73,0h.09a2,2,0,0,1,2.21,1.65c1,3.13,2.1,6.2,3.19,9.29.64,1.82,1.79,2.76,3.32,2.76a5.2,5.2,0,0,0,2-.43c3.2-1.34,6.41-2.67,9.58-4.06a1.83,1.83,0,0,1,.74-.2,1.31,1.31,0,0,1,1,.53c2.33,2.57,4.73,5.09,7.11,7.62a4,4,0,0,0,2.9,1.48,4,4,0,0,0,2.87-1.45c2.28-2.41,4.6-4.79,6.78-7.29a1.86,1.86,0,0,1,1.42-.81,2.88,2.88,0,0,1,1.13.31c3,1.34,6,2.59,9,3.85a5.2,5.2,0,0,0,2,.45c1.54,0,2.7-1,3.35-2.84,1.15-3.27,2.3-6.54,3.4-9.83a1.21,1.21,0,0,1,1.32-1c3.4,0,6.79-.08,10.19-.17,3.15-.08,4.43-1.54,4.15-4.71s-.56-6.61-.88-9.91a1.32,1.32,0,0,1,.91-1.59c3.13-1.39,6.22-2.88,9.32-4.36,2.55-1.21,3.16-3.16,1.79-5.66l-5.45-9.91c2.24-2.6,4.5-5.18,6.72-7.8.7-.82,1.29-1.73,1.93-2.6V67.5a26.4,26.4,0,0,0-2.5-2.67c-2.44-2-4.94-3.83-7.46-5.66a1.38,1.38,0,0,1-.63-1.83c1-3.26,2-6.55,3-9.84.79-2.62-.28-4.44-2.94-5.06-3.38-.79-6.76-1.6-10.14-2.35a1.21,1.21,0,0,1-1.12-1.21c-.37-3.38-.8-6.75-1.22-10.11-.31-2.55-1.49-3.79-3.64-3.79a7.57,7.57,0,0,0-1.36.14c-3.37.63-6.74,1.26-10.1,2a2.08,2.08,0,0,1-.4.05c-.46,0-.71-.24-1-.69q-2.7-4.53-5.45-9a3.71,3.71,0,0,0-3.12-2.11ZM75,108.79A33.79,33.79,0,0,1,75,41.22H75a33.79,33.79,0,0,1,0,67.57Z"/><path class="cls-1" d="M101.74,75A26.73,26.73,0,1,1,75,48.27,26.74,26.74,0,0,1,101.74,75ZM71.31,77.74c-1.81-1.84-3.4-3.49-5-5.1a3.5,3.5,0,0,0-5.12-.11,3.54,3.54,0,0,0,.17,5.12q3.58,3.63,7.21,7.21a3.51,3.51,0,0,0,5.38,0q7.38-7.35,14.73-14.75a4.55,4.55,0,0,0,1.1-1.87,3.38,3.38,0,0,0-1.67-3.89,3.56,3.56,0,0,0-4.3.67q-5.32,5.28-10.6,10.6C72.55,76.26,72,77,71.31,77.74Z"/></svg>